<svg xmlns="http://www.w3.org/2000/svg" viewBox="0 0 100 100">
  <defs>
    <linearGradient id="g" x1="0%" y1="0%" x2="100%" y2="100%">
      <stop offset="0%" style="stop-color:#10b981"/>
      <stop offset="100%" style="stop-color:#059669"/>
    </linearGradient>
  </defs>
  <rect width="100" height="100" rx="20" fill="#0a0a0a"/>
  <path d="M50 20 C35 20 25 30 25 42 L25 48 C22 48 20 50 20 53 L20 75 C20 78 22 80 25 80 L75 80 C78 80 80 78 80 75 L80 53 C80 50 78 48 75 48 L75 42 C75 30 65 20 50 20 Z M40 42 C40 35 44 30 50 30 C56 30 60 35 60 42 L60 48 L40 48 Z M53 62 L53 70 C53 71.5 51.5 73 50 73 C48.5 73 47 71.5 47 70 L47 62 C45 61 44 59 44 57 C44 53.7 46.7 51 50 51 C53.3 51 56 53.7 56 57 C56 59 55 61 53 62 Z" fill="url(#g)"/>
</svg>
