<?xml version="1.0" encoding="UTF-8"?>
<svg version="1.1" xmlns="http://www.w3.org/2000/svg" width="500" height="500">
<path d="M0 0 C13.53 0 27.06 0 41 0 C41.33 50.49 41.66 100.98 42 153 C49.35269811 144.7671858 49.35269811 144.7671858 56 136 C56.66 136 57.32 136 58 136 C58.22945313 135.28714844 58.45890625 134.57429687 58.6953125 133.83984375 C60.26417211 130.42499066 62.28154747 128.27523596 64.875 125.5625 C67.52450656 122.78249536 69.88688243 120.17099679 72.0078125 116.96484375 C74.07845891 113.88323468 76.34345256 111.58538992 79 109 C81.0445803 106.74625193 83.02306642 104.43811264 85 102.125 C85.50789063 101.53847656 86.01578125 100.95195313 86.5390625 100.34765625 C89.09593617 97.36463696 91.47299601 94.36435316 93.6875 91.1171875 C96 88 96 88 99 87 C100.48844716 86.91349416 101.98048257 86.88229827 103.47143555 86.88647461 C104.82249641 86.88658791 104.82249641 86.88658791 106.20085144 86.88670349 C107.16968765 86.89186478 108.13852386 86.89702606 109.13671875 86.90234375 C110.62858452 86.90446617 110.62858452 86.90446617 112.15058899 86.90663147 C115.32958982 86.91223239 118.50852043 86.92478504 121.6875 86.9375 C123.84179586 86.94251488 125.99609282 86.94707781 128.15039062 86.95117188 C133.43361774 86.96220212 138.71680385 86.97894114 144 87 C143.2356514 92.14588856 140.87695077 94.70605198 137.3125 98.3125 C133.30743423 102.491494 129.6002911 106.65185922 126.2265625 111.3671875 C124.38727346 113.81566781 122.18977045 115.86637751 120 118 C116.14706566 121.86952207 116.14706566 121.86952207 115 127 C114.43667969 127.06316406 113.87335938 127.12632812 113.29296875 127.19140625 C110.03830211 128.33913367 108.55876712 130.34965176 106.3125 132.9375 C105.52488281 133.83339844 104.73726562 134.72929687 103.92578125 135.65234375 C101.98996567 137.83548801 101.98996567 137.83548801 101 140 C100.34 140 99.68 140 99 140 C98.77441406 140.54527344 98.54882812 141.09054688 98.31640625 141.65234375 C95.98841577 145.80404191 92.4689756 149.00052365 89.21484375 152.44140625 C86.83340916 154.86341522 86.83340916 154.86341522 86 158 C87.35366511 160.37506788 87.35366511 160.37506788 89.375 162.875 C92.47027944 166.96442301 95.47511666 171.08177734 98.375 175.3125 C104.55783206 184.29194466 110.84495285 193.19069992 117.4375 201.875 C120.91485837 206.47270446 124.20051103 211.170144 127.4375 215.9375 C130.91669175 221.06130094 134.49977599 226.05654652 138.3125 230.9375 C141.14535266 234.58361179 143.9680551 238.22303149 146.625 242 C147.32496094 242.99 147.32496094 242.99 148.0390625 244 C149.21965962 246.45717774 149.06816736 248.30434096 149 251 C142.3800194 251.15208965 135.76048876 251.25718867 129.13916016 251.32958984 C126.88671025 251.35976962 124.63437793 251.400719 122.38232422 251.45263672 C119.14521299 251.52539682 115.90965445 251.55944469 112.671875 251.5859375 C111.16074127 251.63238907 111.16074127 251.63238907 109.61907959 251.67977905 C106.94797525 251.6810659 104.59700526 251.62611945 102 251 C99.47607422 248.16186523 99.47607422 248.16186523 98 245 C96.47474635 242.88390577 94.93300225 240.77960001 93.375 238.6875 C92.59898437 237.63949219 91.82296875 236.59148437 91.0234375 235.51171875 C89.24701069 232.95018678 89.24701069 232.95018678 87 232 C86.7525 231.319375 86.505 230.63875 86.25 229.9375 C84.78560924 226.49618172 82.77586613 223.96472657 80.49609375 221.0234375 C78.85839369 218.80848024 77.57791919 216.46659219 76.26171875 214.05078125 C73.86562817 210.15620678 71.00005579 206.5891138 68.21875 202.96484375 C66.69124031 200.92368203 65.2357327 198.82729275 63.84375 196.69140625 C62.27570474 193.93570957 62.27570474 193.93570957 60 193 C59.375 190.4375 59.375 190.4375 59 188 C58.34 188 57.68 188 57 188 C55.7109375 186.5390625 55.7109375 186.5390625 54.375 184.625 C53.92898437 183.99851563 53.48296875 183.37203125 53.0234375 182.7265625 C52 181 52 181 52 179 C51.34 179 50.68 179 50 179 C48.74387081 177.21298942 47.56791195 175.36907362 46.4375 173.5 C45.31524962 171.65213658 44.17533912 169.81455865 43 168 C42.67 168 42.34 168 42 168 C42.0018986 168.57250598 42.0037972 169.14501197 42.00575334 169.73486662 C42.11766096 203.67156192 42.20344144 237.60821525 42.25532665 271.54505488 C42.26158013 275.62053169 42.26805174 279.69600812 42.2746582 283.77148438 C42.27596976 284.58283311 42.27728131 285.39418184 42.2786326 286.2301169 C42.30038497 299.36475229 42.33980554 312.49927817 42.38576398 325.63384861 C42.43253336 339.11266832 42.46029641 352.59143071 42.47044247 366.07032824 C42.47730066 374.38656315 42.49895578 382.70248855 42.53958233 391.01862818 C42.56602669 396.72251052 42.5739972 402.42623301 42.56750689 408.13017219 C42.56430652 411.42043789 42.57192674 414.71004961 42.59602737 418.00024414 C42.62090286 421.57119135 42.61492343 425.14081416 42.60127258 428.71179199 C42.61583679 429.7468272 42.630401 430.7818624 42.64540654 431.84826231 C42.5590107 440.20916312 39.95660615 444.90900266 34.25 450.875 C28.6638312 454.52749498 22.5876399 455.73572761 15.98046875 454.6015625 C10.91704648 453.06356047 7.20375892 450.42516458 3.8125 446.41015625 C1.48698697 442.03478368 1.33560149 438.50428488 1.25 433.625 C1.20552734 432.37783203 1.20552734 432.37783203 1.16015625 431.10546875 C1.08999601 429.07082173 1.04267105 427.03540909 1 425 C0.18402344 425.0721875 -0.63195312 425.144375 -1.47265625 425.21875 C-9.77968203 425.86957248 -18.04178948 426.10946383 -26.375 426.125 C-27.40375244 426.12951172 -28.43250488 426.13402344 -29.49243164 426.13867188 C-30.45141357 426.13673828 -31.41039551 426.13480469 -32.3984375 426.1328125 C-33.26130371 426.13168457 -34.12416992 426.13055664 -35.01318359 426.12939453 C-37 426 -37 426 -38 425 C-38.0885067 422.40665852 -38.1153317 419.83937421 -38.09765625 417.24609375 C-38.09664917 416.55906372 -38.09564209 415.87203369 -38.09460449 415.16418457 C-38.08935776 412.58860616 -38.07539659 410.01305147 -38.0625 407.4375 C-38.041875 401.683125 -38.02125 395.92875 -38 390 C-25.13 390 -12.26 390 1 390 C1 383.73 1 377.46 1 371 C-7.91 371 -16.82 371 -26 371 C-27.48679725 368.02640551 -27.11112605 365.33700821 -27.09765625 362.0234375 C-27.0962413 361.33819 -27.09482635 360.6529425 -27.09336853 359.94692993 C-27.08776675 357.75624239 -27.07521406 355.5656567 -27.0625 353.375 C-27.05748522 351.89062648 -27.05292228 350.40625135 -27.04882812 348.921875 C-27.03779677 345.28121685 -27.02053099 341.64061836 -27 338 C-23.27084983 337.97087652 -19.5417291 337.95315963 -15.8125 337.9375 C-14.75740234 337.92912109 -13.70230469 337.92074219 -12.61523438 337.91210938 C-11.08286133 337.90727539 -11.08286133 337.90727539 -9.51953125 337.90234375 C-8.11344604 337.89448853 -8.11344604 337.89448853 -6.67895508 337.88647461 C-4.0163545 337.99930695 -1.6021859 338.45012062 1 339 C0.97021844 337.7492056 0.94043688 336.4984112 0.90975285 335.20971394 C0.05459472 298.52317391 -0.13895734 261.85319983 -0.10353777 225.1591015 C-0.0961895 217.32798726 -0.09487051 209.4968747 -0.09374207 201.66575751 C-0.09158258 187.71361064 -0.08500933 173.76146979 -0.07543945 159.80932617 C-0.06618318 146.29988636 -0.05914321 132.79044822 -0.05493164 119.28100586 C-0.05466892 118.44064947 -0.05440619 117.60029308 -0.05413551 116.73447134 C-0.05282996 112.5163706 -0.05156637 108.29826984 -0.05032361 104.08016908 C-0.04004822 69.38677488 -0.02223176 34.69338852 0 0 Z " fill="#630A16" transform="translate(196,22)"/>
<path d="M0 0 C4 1 4 1 4 1 Z " fill="#F5E7E4" transform="translate(220,477)"/>
<path d="M0 0 C0.66 0.66 1.32 1.32 2 2 C1.34 2 0.68 2 0 2 C0 1.34 0 0.68 0 0 Z " fill="#F1E7DE" transform="translate(299,159)"/>
<path d="M0 0 C2 1 2 1 2 1 Z " fill="#EDE4DE" transform="translate(192,409)"/>
<path d="" fill="#F6EEDD" transform="translate(0,0)"/>
<path d="" fill="#625854" transform="translate(0,0)"/>
</svg>
