<?xml version="1.0" encoding="UTF-8"?>
<svg version="1.1" xmlns="http://www.w3.org/2000/svg" width="1792" height="2400">
<path d="M0 0 C15.84 0 31.68 0 48 0 C49.0501512 36.81317439 49.12384715 73.58999418 49.07202661 110.41343164 C49.06060596 118.68022571 49.0552904 126.94702087 49.05032361 135.21382093 C49.04002416 152.14255655 49.02257404 169.07127618 49 186 C49.73677979 185.124646 50.47355957 184.24929199 51.23266602 183.34741211 C52.21885932 182.17817758 53.20510908 181.00899066 54.19140625 179.83984375 C54.67468384 179.26536499 55.15796143 178.69088623 55.65588379 178.09899902 C58.67953932 174.51752025 61.76688957 171.01460517 64.9375 167.5625 C67.99413993 164.20343633 70.49782839 160.79361502 73 157 C74.89930158 154.78560691 76.85476814 152.62770561 78.8125 150.46484375 C81.01104123 147.9875589 83.10547533 145.45074008 85.1875 142.875 C88.88695344 138.31148737 92.69913516 133.86282897 96.5625 129.4375 C100.90164642 124.46353978 105.14404884 119.44133773 109.21875 114.24609375 C109.8065625 113.50488281 110.394375 112.76367188 111 112 C111.59449951 110.97575928 112.18899902 109.95151855 112.80151367 108.89624023 C114.7019019 106.64347538 115.72547698 106.05459604 118.65261841 105.47245789 C122.10211818 105.30410517 125.50444991 105.32649605 128.95703125 105.4140625 C130.84418098 105.42679703 130.84418098 105.42679703 132.76945496 105.43978882 C136.10281754 105.46765427 139.43368691 105.52147917 142.76635742 105.5880127 C146.17149383 105.64956599 149.57688862 105.67683122 152.98242188 105.70703125 C159.65563408 105.77315683 166.32767318 105.87354165 173 106 C168.80553118 112.39670458 168.80553118 112.39670458 166.3359375 115.26171875 C165.85874268 115.81754639 165.38154785 116.37337402 164.88989258 116.94604492 C164.14002075 117.80806519 164.14002075 117.80806519 163.375 118.6875 C162.84865967 119.29762939 162.32231934 119.90775879 161.7800293 120.53637695 C158.51358489 124.30694179 155.18623359 128.01282304 151.8125 131.6875 C142.41869759 140.7282347 142.41869759 140.7282347 137 152 C136.41476562 152.07347656 135.82953125 152.14695312 135.2265625 152.22265625 C132.20040159 153.27915804 131.26022537 154.86637349 129.375 157.4375 C126.46059054 161.24573392 123.44097321 164.65960908 120 168 C115.20576623 172.68376756 111.09933549 177.70994843 107 183 C105.3502584 185.01501286 103.67749661 187.00797277 102 189 C106.74845825 196.94384933 112.13104472 204.31478628 117.65917969 211.72558594 C121.38671414 216.7451738 124.95838167 221.82683625 128.375 227.0625 C131.67248301 232.11201917 135.19131143 236.85124497 139.0234375 241.5078125 C141.61127006 244.77073182 143.94683463 248.18411208 146.29541016 251.62158203 C153.3413665 261.9126604 160.63655334 272.04419044 168.3125 281.875 C181 298.21716448 181 298.21716448 181 302 C173.70700835 302.23257328 166.41482605 302.40980803 159.11886597 302.51812172 C155.73008505 302.57013405 152.34385523 302.64055081 148.95654297 302.75439453 C145.05368557 302.87613504 141.15441368 302.93250206 137.25 302.9765625 C136.04448486 303.02817535 134.83896973 303.07978821 133.59692383 303.13296509 C125.32066754 303.13844576 125.32066754 303.13844576 121.49459839 299.84028625 C119.44986952 297.31217703 117.69745029 294.77018995 116 292 C115.11201165 290.73458732 114.21942805 289.47237457 113.3203125 288.21484375 C112.20617807 286.55157188 111.09222422 284.88816795 109.984375 283.22070312 C107.97160138 280.10131884 107.97160138 280.10131884 105 278 C104.566875 276.88625 104.566875 276.88625 104.125 275.75 C102.84489825 272.62086238 101.18472643 270.57026639 99 268 C97.08185728 265.67497852 95.2637511 263.44361806 93.72265625 260.8515625 C91.45320511 257.09487468 88.98395384 253.49221661 86.5 249.875 C86.01402344 249.15957031 85.52804687 248.44414063 85.02734375 247.70703125 C84.55425781 247.01738281 84.08117187 246.32773438 83.59375 245.6171875 C83.16771484 244.99440918 82.74167969 244.37163086 82.30273438 243.72998047 C80.98993729 241.98663711 79.54571346 240.53577822 78 239 C75 234.44444444 75 234.44444444 75 232 C74.01 232 73.02 232 72 232 C71.7525 231.278125 71.505 230.55625 71.25 229.8125 C69.86353705 226.69295837 68.19194004 224.6181506 66 222 C65.07552401 220.79763093 64.1596182 219.5886482 63.25 218.375 C62.74339844 217.70082031 62.23679687 217.02664063 61.71484375 216.33203125 C60.43685579 214.59408407 59.18277085 212.83851113 57.94140625 211.07421875 C57.23886719 210.08035156 56.53632812 209.08648438 55.8125 208.0625 C55.15894531 207.12535156 54.50539063 206.18820312 53.83203125 205.22265625 C52.12020422 202.74511041 52.12020422 202.74511041 49 202 C49.00151888 202.68888432 49.00303776 203.37776863 49.00460267 204.08752823 C49.09410844 244.9133564 49.16274293 285.73917319 49.20426132 326.56507975 C49.20926416 331.46672651 49.21444145 336.36837307 49.21972656 341.27001953 C49.2207758 342.24585208 49.22182505 343.22168463 49.22290608 344.22708786 C49.24031291 360.02913816 49.27185214 375.83113027 49.30861118 391.63314605 C49.34601286 407.84659897 49.36823422 424.06002141 49.37635398 440.2735157 C49.38184335 450.27870797 49.39918318 460.28373578 49.43166587 470.28887743 C49.4528042 477.14910681 49.45920158 484.00925112 49.45400551 490.86951071 C49.45144267 494.82798548 49.4553806 498.78617278 49.4768219 502.74459648 C49.49631989 506.37076301 49.49724933 509.99644936 49.48359558 513.62263823 C49.48111133 515.55136841 49.49833427 517.48009313 49.51632524 519.408741 C49.45645996 528.09063913 48.086061 533.99190709 42 540.3125 C35.97147207 545.09105237 27.52692538 546.4595816 20 546 C13.4227185 543.83578421 7.17865585 539.59049954 3.84375 533.453125 C1.51548112 528.62697825 1.53951165 524.27030452 1.75 519 C1.76804687 518.12988281 1.78609375 517.25976562 1.8046875 516.36328125 C1.85131564 514.24170093 1.92303923 512.12069665 2 510 C0.87207031 510.16298584 -0.25585938 510.32597168 -1.41796875 510.49389648 C-6.06360564 511.07211509 -10.63643484 511.12738634 -15.3125 511.09765625 C-16.16682617 511.0962413 -17.02115234 511.09482635 -17.90136719 511.09336853 C-20.60094873 511.08781962 -23.30044399 511.07527697 -26 511.0625 C-27.84244671 511.05747839 -29.68489473 511.05291664 -31.52734375 511.04882812 C-36.01826186 511.03786699 -40.50911636 511.02063825 -45 511 C-46.06904036 501.9306328 -46.11830883 492.9261867 -46.0625 483.8125 C-46.05747088 482.36914219 -46.05291049 480.92578267 -46.04882812 479.48242188 C-46.0379438 475.98824495 -46.0207585 472.49413388 -46 469 C-42.84355788 467.42177894 -39.45700964 467.85812496 -35.9921875 467.8671875 C-35.19273712 467.86623077 -34.39328674 467.86527405 -33.5696106 467.86428833 C-31.87322918 467.86360691 -30.17684517 467.86545854 -28.48046875 467.86962891 C-25.9061888 467.87493571 -23.3320867 467.86970458 -20.7578125 467.86328125 C-19.10677045 467.86394286 -17.45572851 467.86522574 -15.8046875 467.8671875 C-15.04292206 467.86516327 -14.28115662 467.86313904 -13.49630737 467.86105347 C-12.76259918 467.86420563 -12.02889099 467.86735779 -11.27294922 467.87060547 C-10.6394455 467.87140106 -10.00594177 467.87219666 -9.35324097 467.87301636 C-5.886818 468.06006861 -2.44465899 468.56941763 1 469 C1 461.08 1 453.16 1 445 C-1.743125 445.165 -4.48625 445.33 -7.3125 445.5 C-27.06839451 446.60655818 -27.06839451 446.60655818 -32 444 C-32.16723026 438.74912156 -32.32782815 433.49809906 -32.48217773 428.24682617 C-32.53567402 426.45900968 -32.59100904 424.67124725 -32.64819336 422.88354492 C-32.72989235 420.31961734 -32.80505945 417.75557047 -32.87890625 415.19140625 C-32.90594131 414.3872377 -32.93297638 413.58306915 -32.96083069 412.75453186 C-33.01285627 410.83701578 -33.01187441 408.91818497 -33 407 C-32 406 -32 406 -28.94897461 405.97827148 C-27.59992148 406.02059343 -26.25103997 406.06861518 -24.90234375 406.12109375 C-24.19348526 406.14470474 -23.48462677 406.16831573 -22.75428772 406.19264221 C-20.48182979 406.26944646 -18.20969843 406.35339775 -15.9375 406.4375 C-14.40040681 406.49070396 -12.8632975 406.54344446 -11.32617188 406.59570312 C-7.55057297 406.72508405 -3.77525197 406.8608769 0 407 C0.12716975 361.01472518 0.0483161 315.03140434 -0.22265625 269.046875 C-0.22809425 268.12351341 -0.23353224 267.20015182 -0.23913503 266.24880958 C-0.30120564 255.7357208 -0.36475516 245.22264111 -0.42880249 234.70956421 C-0.77908549 177.20843598 -1.10876623 119.708132 -1.12283063 62.20577395 C-1.12410797 57.35031459 -1.12783586 52.4948614 -1.13256836 47.6394043 C-1.13858491 41.2483881 -1.13873174 34.85738926 -1.13431931 28.46637154 C-1.13332644 26.15914485 -1.13390113 23.85191688 -1.13615799 21.54469109 C-1.13867741 18.44114482 -1.13496451 15.3376716 -1.12939453 12.23413086 C-1.13142128 11.33036713 -1.13344803 10.42660339 -1.13553619 9.49545288 C-1.13271385 8.67488907 -1.12989151 7.85432526 -1.12698364 7.00889587 C-1.12660662 6.30153258 -1.12622959 5.59416929 -1.12584114 4.86537075 C-1 3 -1 3 0 0 Z " fill="#620814" transform="translate(742,1011)"/>
<path d="M0 0 C14.25688943 12.34303424 23.84566219 31.445944 27.23583984 49.83007812 C27.42533203 50.61769531 27.61482422 51.4053125 27.81005859 52.21679688 C30.43496533 63.47969457 30.31761446 75.25933539 30.36083984 86.76757812 C30.3655127 87.6504248 30.37018555 88.53327148 30.375 89.44287109 C30.35894771 95.70697026 30.35894771 95.70697026 29.23583984 96.83007812 C27.38822716 96.9265606 25.53688174 96.9519513 23.68675232 96.95033264 C22.48215363 96.95170731 21.27755493 96.95308197 20.03645325 96.95449829 C18.68942236 96.95095869 17.34239173 96.94732387 15.99536133 96.94360352 C14.58636477 96.94332165 13.17736806 96.94347937 11.76837158 96.94404602 C7.93176354 96.94433401 4.0951865 96.93843706 0.25858569 96.93147206 C-3.74662957 96.92523875 -7.75184546 96.92463474 -11.75706482 96.92344666 C-19.34668019 96.92033327 -26.93628124 96.91211979 -34.52589029 96.90209717 C-43.16419939 96.89093625 -51.80250916 96.88542563 -60.44082367 96.88040173 C-78.21527731 96.86993718 -95.98971758 96.85233761 -113.76416016 96.83007812 C-113.452885 98.41365271 -113.14008727 99.99692806 -112.82666016 101.58007812 C-112.65263672 102.46179687 -112.47861328 103.34351563 -112.29931641 104.25195312 C-111.84047527 106.46242866 -111.33079942 108.64519881 -110.76416016 110.83007812 C-110.10416016 110.83007812 -109.44416016 110.83007812 -108.76416016 110.83007812 C-108.67521484 111.70019531 -108.58626953 112.5703125 -108.49462891 113.46679688 C-106.72882206 121.59706263 -100.37615263 128.06376641 -93.68237305 132.6784668 C-78.36436313 142.51577827 -62.96375463 144.61638105 -45.10009766 142.36914062 C-31.25348401 139.26369957 -20.33955309 130.89510127 -11.76416016 119.83007812 C-7.04786548 120.33199572 -4.48886983 122.27715766 -0.82666016 125.20507812 C0.31383564 126.11279257 1.45446566 127.02033839 2.59521484 127.92773438 C3.18625 128.40227051 3.77728516 128.87680664 4.38623047 129.36572266 C6.27753087 130.86308535 8.19621548 132.31694901 10.12646484 133.76367188 C10.76076416 134.24465332 11.39506348 134.72563477 12.04858398 135.22119141 C13.27391777 136.15020473 14.50469383 137.07209466 15.74145508 137.98583984 C19.1521191 140.60640194 21.07259921 142.64991662 22.23583984 146.83007812 C17.95329886 152.07619084 13.44469755 156.51195445 8.23583984 160.83007812 C7.60419922 161.384375 6.97255859 161.93867187 6.32177734 162.50976562 C-6.59910226 173.33536745 -22.72942314 179.36352551 -38.76416016 183.83007812 C-39.45509766 184.0234375 -40.14603516 184.21679688 -40.85791016 184.41601562 C-57.61427172 188.05571711 -75.98122302 186.07078895 -91.76416016 179.83007812 C-92.65570801 179.48799316 -93.54725586 179.1459082 -94.46582031 178.79345703 C-107.37335041 173.77807094 -118.64199295 168.36864212 -128.76416016 158.83007812 C-129.31168945 158.31590332 -129.85921875 157.80172852 -130.42333984 157.27197266 C-138.72903591 149.37503099 -145.60409944 141.94921128 -150.38916016 131.45507812 C-150.77072266 130.64296875 -151.15228516 129.83085938 -151.54541016 128.99414062 C-154.90584981 121.7634015 -157.75680769 114.72248857 -159.38916016 106.89257812 C-159.74880859 105.20841797 -159.74880859 105.20841797 -160.11572266 103.49023438 C-161.56416694 95.31437717 -161.94639184 87.31517596 -161.95166016 79.01757812 C-161.96390625 78.01404297 -161.97615234 77.01050781 -161.98876953 75.9765625 C-162.02680165 56.2378904 -156.56806274 33.23326921 -143.76416016 17.83007812 C-142.99587891 16.86070313 -142.22759766 15.89132812 -141.43603516 14.89257812 C-139.24992224 12.17079515 -137.01417199 9.49899812 -134.76416016 6.83007812 C-134.01972656 5.88261719 -134.01972656 5.88261719 -133.26025391 4.91601562 C-130.74156534 1.710412 -128.28462231 -0.15822921 -124.76416016 -2.16992188 C-124.61508896 -4.24445747 -124.61508896 -4.24445747 -125.76416016 -6.16992188 C-124.94431641 -6.09 -124.12447266 -6.01007813 -123.27978516 -5.92773438 C-118.68756608 -6.24408724 -115.53425483 -7.91706956 -111.51416016 -10.04492188 C-110.79486328 -10.40972656 -110.07556641 -10.77453125 -109.33447266 -11.15039062 C-106.4927494 -12.61382489 -104.03787443 -13.8962076 -101.76416016 -16.16992188 C-99.81103516 -16.73242188 -99.81103516 -16.73242188 -97.51416016 -17.16992188 C-94.86374205 -17.68172675 -92.42559007 -18.28582053 -89.86572266 -19.16210938 C-59.93429306 -28.88793914 -23.83417148 -19.4911653 0 0 Z M-94.76416016 24.83007812 C-94.76416016 25.49007813 -94.76416016 26.15007812 -94.76416016 26.83007812 C-95.33263672 26.87519531 -95.90111328 26.9203125 -96.48681641 26.96679688 C-102.45780162 29.23024067 -106.63354257 38.56884295 -109.42431641 44.15039062 C-111.51751009 49.02026982 -113.16803909 53.53205213 -113.76416016 58.83007812 C-113.43416016 59.49007813 -113.10416016 60.15007812 -112.76416016 60.83007812 C-107.49150734 61.92118262 -102.34836063 61.93991253 -96.9831543 61.85180664 C-96.13357147 61.8421991 -95.28398865 61.83259155 -94.40866089 61.82269287 C-91.62212268 61.78991562 -88.83575187 61.74950343 -86.04931641 61.70898438 C-84.10876543 61.68466242 -82.16820838 61.66081993 -80.22764587 61.63743591 C-75.13623107 61.57480141 -70.04492449 61.50567697 -64.95361328 61.43518066 C-59.75184023 61.36431016 -54.54999083 61.29960544 -49.34814453 61.234375 C-39.15339916 61.10562886 -28.95875752 60.97002336 -18.76416016 60.83007812 C-18.74615134 59.07254758 -18.73331456 57.31496354 -18.72265625 55.55737305 C-18.71495209 54.57862717 -18.70724792 53.59988129 -18.6993103 52.59147644 C-18.90782249 43.71273309 -22.54340937 35.11714821 -28.76416016 28.83007812 C-34.14756616 23.75810883 -38.25151534 20.14976514 -45.76416016 19.83007812 C-46.25916016 18.84007812 -46.25916016 18.84007812 -46.76416016 17.83007812 C-63.46640704 10.21150937 -79.88520407 16.04329303 -94.76416016 24.83007812 Z " fill="#630815" transform="translate(670.76416015625,1133.169921875)"/>
<path d="M0 0 C0 0.66 0 1.32 0 2 C0.66 2.185625 1.32 2.37125 2 2.5625 C11.01516094 6.88226462 15.89613083 14.72927224 21 23 C21.62132812 23.92683594 22.24265625 24.85367187 22.8828125 25.80859375 C37.11674555 48.02215593 36 77.16027799 36 102 C-11.19 102 -58.38 102 -107 102 C-104.4638323 115.94892234 -99.95154064 128.51743049 -88.125 137.08203125 C-84.82107413 139.22243515 -81.4691735 141.140523 -78 143 C-77.04738281 143.53238281 -76.09476563 144.06476563 -75.11328125 144.61328125 C-62.9054322 150.39937793 -46.47092674 149.99077748 -33.625 146.375 C-22.97908376 142.31404122 -15.75082477 136.24035054 -8 128 C-6.6712095 126.66213926 -5.33943545 125.32720316 -4 124 C-1.99136721 125.32146894 0.00679003 126.65546783 2 128 C3.21236328 128.81597656 3.21236328 128.81597656 4.44921875 129.6484375 C9.07578059 132.81579972 13.07811345 135.97755226 17 140 C18.53181138 141.17957667 20.07444502 142.34517253 21.625 143.5 C24.93177294 146.01446794 27.24511049 148.13924308 29 152 C28.01 152 27.02 152 26 152 C25.65195313 153.07507812 25.65195313 153.07507812 25.296875 154.171875 C17.81617111 170.48521722 -4.06106601 179.05080568 -19.61816406 185.12402344 C-24.32363167 186.85457056 -29.06719193 188.09132483 -34 189 C-35.0993689 189.25583862 -35.0993689 189.25583862 -36.22094727 189.5168457 C-41.38752893 190.41508563 -46.63362798 190.18592441 -51.86499023 190.18530273 C-53.92778142 190.1874897 -55.99003755 190.20567653 -58.05273438 190.22460938 C-59.36435547 190.22654297 -60.67597656 190.22847656 -62.02734375 190.23046875 C-63.81773071 190.23663208 -63.81773071 190.23663208 -65.64428711 190.24291992 C-69.09018399 189.99347158 -71.78050529 189.21582561 -75 188 C-75.89976563 187.75121094 -76.79953125 187.50242187 -77.7265625 187.24609375 C-84.84238657 185.26095146 -91.50652019 182.62439286 -98.25 179.625 C-99.49064209 179.08057251 -99.49064209 179.08057251 -100.75634766 178.52514648 C-105.93055421 176.17553423 -110.54690121 173.44493921 -115.17871094 170.14990234 C-116.92286998 168.82204498 -116.92286998 168.82204498 -119 169 C-119.0825 168.38125 -119.165 167.7625 -119.25 167.125 C-119.76974566 164.85981867 -119.76974566 164.85981867 -121.7421875 164.15234375 C-124.64696372 162.66980225 -126.56515264 160.73655369 -128.875 158.4375 C-129.69742187 157.63183594 -130.51984375 156.82617188 -131.3671875 155.99609375 C-152.08571039 132.41878357 -156.7728513 102.16410375 -155 72 C-153.15763133 52.40980474 -146.11717708 33.71303542 -133 19 C-132.10096608 17.95363715 -131.2025351 16.90675597 -130.3046875 15.859375 C-121.24319394 5.46959672 -111.64254003 -2.36769674 -99 -8 C-98.13632813 -8.39058594 -97.27265625 -8.78117187 -96.3828125 -9.18359375 C-94.90504463 -9.84495544 -93.42385321 -10.49879066 -91.9375 -11.140625 C-90.58735075 -11.73948152 -89.25455472 -12.37836996 -87.9375 -13.046875 C-84.5393966 -14.71852264 -81.54402264 -15.20526761 -77.8125 -15.5 C-74.59162587 -15.76455681 -71.44863176 -16.08270524 -68.25 -16.5625 C-43.86509533 -19.64165293 -20.25347656 -13.50231771 0 0 Z M-96.21875 38.484375 C-101.66410111 46.17473929 -107 56.35790614 -107 66 C-97.4059621 67.25051802 -87.88083018 67.10421001 -78.2265625 67.01953125 C-77.33605572 67.01257421 -76.44554893 67.00561718 -75.5280571 66.99844933 C-70.82901131 66.96127295 -66.13008442 66.91736456 -61.43115234 66.86791992 C-56.58238552 66.81826757 -51.7337851 66.79228732 -46.88482094 66.77148914 C-43.14605708 66.75115015 -39.4076179 66.7132934 -35.66904831 66.6706295 C-33.88052895 66.65329339 -32.09193238 66.64259541 -30.30333328 66.63868141 C-27.80921051 66.63161449 -25.31657099 66.59974481 -22.82275391 66.56176758 C-21.7177504 66.56695656 -21.7177504 66.56695656 -20.59042358 66.57225037 C-17.17357027 66.49519406 -15.28738102 66.21099 -12.50106812 64.16532898 C-10.67319926 61.99875279 -10.67319926 61.99875279 -11.16015625 58.79296875 C-14.59862682 45.05397162 -18.84383432 34.5504806 -31.2265625 26.57421875 C-53.11414528 14.15070345 -79.86339487 18.77751267 -96.21875 38.484375 Z " fill="#630815" transform="translate(1462,1128)"/>
<path d="M0 0 C15.84 0 31.68 0 48 0 C48.029729 5.44935059 48.029729 5.44935059 48.06005859 11.00878906 C48.12709476 23.03883183 48.20463521 35.06878563 48.28752708 47.09872818 C48.33750848 54.38936547 48.38395218 61.67999232 48.421875 68.97070312 C48.4549631 75.33016737 48.49488519 81.68954702 48.54279006 88.04891753 C48.5678893 91.41173708 48.58869791 94.77444575 48.60334396 98.13733673 C48.6203319 101.9045051 48.64939692 105.67140757 48.68115234 109.43847656 C48.68331253 110.53612335 48.68547272 111.63377014 48.68769836 112.76467896 C48.82599049 125.68554276 50.14543786 138.10618255 59.375 147.875 C66.83478389 154.67985639 75.9611666 157.91773799 86.0625 158.375 C96.11250981 157.41785621 105.08899218 154.47989925 112.0625 146.9375 C123.27785959 132.81104981 126.10604449 118.37932524 126.20532227 100.81054688 C126.21522186 99.71697876 126.22512146 98.62341064 126.23532104 97.4967041 C126.26675435 93.9040743 126.29162127 90.3114313 126.31640625 86.71875 C126.33699148 84.21911284 126.35798836 81.71947903 126.37937927 79.21984863 C126.42881891 73.32692094 126.47412578 67.43397296 126.51740164 61.54099703 C126.57180245 54.16792127 126.63267151 46.79490123 126.69335938 39.421875 C126.80074254 26.28128637 126.90174204 13.14066004 127 0 C142.84 0 158.68 0 175 0 C175 64.68 175 129.36 175 196 C136 196 136 196 131 194 C129.32121757 188.85822192 129.88767005 182.99896807 129.9375 177.625 C129.94201172 176.69816406 129.94652344 175.77132813 129.95117188 174.81640625 C129.96288426 172.54420291 129.97928628 170.27213612 130 168 C129.34 168 128.68 168 128 168 C127.814375 168.66 127.62875 169.32 127.4375 170 C125.3544141 174.3473097 122.26505931 177.49308444 119 181 C118.24589844 181.88558594 118.24589844 181.88558594 117.4765625 182.7890625 C107.13873612 194.28136695 90.47504781 200.82307875 75.37304688 201.74047852 C62.52349998 202.31703392 62.52349998 202.31703392 58 201 C58 200.34 58 199.68 58 199 C56.824375 199 55.64875 199 54.4375 199 C39.85164133 197.30556744 25.84775077 184.97854273 16.6875 174.25 C-0.80028269 150.94530654 -0.29274923 124.64652027 -0.44921875 96.66015625 C-0.46958418 93.95778579 -0.49244009 91.25543747 -0.51509094 88.55308533 C-0.56077029 82.92970907 -0.59929445 77.3063211 -0.63305664 71.68286133 C-0.67212135 65.18638625 -0.72145765 58.69005129 -0.77638692 52.19369227 C-0.82937621 45.91247521 -0.87654075 39.63122905 -0.92057228 33.34994316 C-0.9392636 30.68691498 -0.95999187 28.02392642 -0.98166466 25.36091805 C-1.01072076 21.65867385 -1.03308206 17.95645114 -1.0534668 14.25415039 C-1.06327072 13.15242493 -1.07307465 12.05069946 -1.08317566 10.91558838 C-1.08732483 9.91095047 -1.091474 8.90631256 -1.0957489 7.87123108 C-1.1014474 6.99770524 -1.1071459 6.1241794 -1.11301708 5.22418308 C-1 3 -1 3 0 0 Z " fill="#630915" transform="translate(949,1117)"/>
<path d="M0 0 C2.46942416 2.62231534 3.05884579 3.61560262 3.08203125 7.2109375 C1.27963058 9.62556143 -0.41846378 11.55295371 -2.55078125 13.640625 C-3.13963104 14.23521515 -3.72848083 14.8298053 -4.33517456 15.44241333 C-5.58391634 16.69523725 -6.84026416 17.94051889 -8.10351562 19.17871094 C-10.03614983 21.07923189 -11.93471898 23.00960107 -13.83203125 24.9453125 C-15.04886209 26.15817848 -16.26755287 27.36918191 -17.48828125 28.578125 C-18.05620392 29.15819305 -18.62412659 29.73826111 -19.20925903 30.33590698 C-23.23324614 34.21984242 -23.23324614 34.21984242 -26.71508789 34.17456055 C-29.48792151 32.9616187 -30.46994135 31.59804961 -32.23046875 29.1484375 C-38.60478668 21.51875677 -51.25263379 14.97359309 -61.234375 13.98046875 C-63.7973825 14.0295002 -66.35649423 14.10847852 -68.91796875 14.2109375 C-70.45904297 14.22060547 -70.45904297 14.22060547 -72.03125 14.23046875 C-81.54026875 14.537946 -89.88897293 16.99454652 -96.60546875 24.0234375 C-98.89684119 29.58819914 -99.70110095 34.63840735 -97.85546875 40.4609375 C-95.0258882 46.85604331 -89.75446326 49.55713461 -83.63867188 52.22070312 C-78.4031772 54.12622775 -72.93849531 55.03293251 -67.48046875 56.0859375 C-56.27988339 58.37123585 -45.5870864 61.11386677 -34.91796875 65.2109375 C-33.96446533 65.56623535 -33.96446533 65.56623535 -32.99169922 65.92871094 C-17.97399216 71.58508317 -4.74398699 80.58440908 2.05078125 95.57421875 C8.1409617 111.14570286 8.10770722 128.36748406 1.5703125 143.7734375 C-5.79774149 159.8343067 -17.94456902 169.14074418 -33.91796875 176.2109375 C-34.70429688 176.57960938 -35.490625 176.94828125 -36.30078125 177.328125 C-42.19154623 179.92309221 -47.84507166 180.98081496 -54.23046875 181.71875 C-57.05966866 181.97386533 -57.05966866 181.97386533 -58.91796875 184.2109375 C-61.12939453 184.45385742 -61.12939453 184.45385742 -63.86328125 184.44140625 C-64.8584375 184.43947266 -65.85359375 184.43753906 -66.87890625 184.43554688 C-67.92304688 184.42330078 -68.9671875 184.41105469 -70.04296875 184.3984375 C-71.06390625 184.39779297 -72.08484375 184.39714844 -73.13671875 184.39648438 C-78.81830557 184.36362173 -84.29878785 184.05314087 -89.91796875 183.2109375 C-89.91796875 182.5509375 -89.91796875 181.8909375 -89.91796875 181.2109375 C-90.64790039 181.19023193 -91.37783203 181.16952637 -92.12988281 181.14819336 C-100.06391196 180.73271614 -106.41971683 178.94945724 -113.66796875 175.7734375 C-114.70856445 175.32605225 -115.74916016 174.87866699 -116.82128906 174.41772461 C-131.12996863 168.10266518 -142.85447606 160.23252302 -153.91796875 149.2109375 C-153.32509603 145.7083079 -152.04283509 143.88062773 -149.66796875 141.2734375 C-149.0853125 140.62503906 -148.50265625 139.97664063 -147.90234375 139.30859375 C-145.61902307 136.89492602 -143.2758749 134.55192897 -140.91796875 132.2109375 C-139.73395257 131.02776633 -138.55038877 129.84414235 -137.3671875 128.66015625 C-133.88411458 125.17708333 -130.40104167 121.69401042 -126.91796875 118.2109375 C-123.58578866 119.73081739 -121.53939738 121.53365967 -119.06274414 124.24829102 C-108.42213245 135.84083547 -95.26736004 142.3616558 -79.453125 143.44921875 C-66.86509527 143.71349783 -55.44925536 143.22998606 -45.91796875 134.2109375 C-43.20682105 131.02093773 -42.0486138 128.07646098 -41.41796875 123.8984375 C-42.30583551 117.35042013 -44.03101088 111.29362193 -49.23046875 106.8984375 C-58.0331522 101.1226991 -68.75930951 99.01410803 -79.01953125 97.66015625 C-82.29721377 97.15215963 -85.18664981 96.25988094 -88.2890625 95.1171875 C-90.46269429 94.36788204 -92.61288343 93.72453333 -94.828125 93.1171875 C-113.7609604 87.91044446 -131.51910803 78.78869576 -141.69140625 61.1328125 C-147.65876923 48.23227056 -148.11705384 32.57667532 -143.85546875 19.0234375 C-140.54418524 10.53416959 -136.02907297 2.10299529 -128.91796875 -3.7890625 C-128.25796875 -3.7890625 -127.59796875 -3.7890625 -126.91796875 -3.7890625 C-126.58796875 -4.7790625 -126.25796875 -5.7690625 -125.91796875 -6.7890625 C-114.28496329 -15.57361242 -98.33199909 -21.41344965 -83.91796875 -22.7890625 C-82.95503906 -22.90894531 -81.99210937 -23.02882813 -81 -23.15234375 C-51.07445717 -26.30040466 -23.57977407 -18.68840463 0 0 Z " fill="#620814" transform="translate(474.91796875,1134.7890625)"/>
<path d="M0 0 C0.86753906 -0.01611328 1.73507812 -0.03222656 2.62890625 -0.04882812 C7.8219414 -0.05278021 11.34055328 0.49519622 15.875 3.3125 C16.08626755 17.32658056 15.44859761 31.3127519 14.875 45.3125 C10.8447844 47.63694452 8.43600513 47.04551868 3.875 46.3125 C2.96814453 46.56 2.96814453 46.56 2.04296875 46.8125 C-0.86906632 47.48410448 -3.34900978 47.08635791 -6.3125 46.75 C-17.63366442 45.81499312 -25.04342147 48.89973608 -34.03125 55.76953125 C-45.35193073 65.93241509 -50.07364748 80.56354258 -50.93530273 95.21203613 C-51.25725768 101.54140946 -51.22886384 107.86728808 -51.1875 114.203125 C-51.1827254 115.59024368 -51.17854992 116.97736453 -51.17492676 118.36448669 C-51.16676912 121.27249577 -51.15612683 124.18047821 -51.14331055 127.08847046 C-51.11116462 134.59150247 -51.09893891 142.0945613 -51.09375 149.59765625 C-51.09320114 150.33093958 -51.09265228 151.06422291 -51.09208679 151.81972694 C-51.08533435 168.32903068 -51.42063441 184.81798129 -52.125 201.3125 C-57.83585294 201.33731154 -63.54667414 201.35541275 -69.25756836 201.36743164 C-71.19832913 201.37244485 -73.13908616 201.37925712 -75.07983398 201.38793945 C-77.87745084 201.40013732 -80.67501755 201.40575855 -83.47265625 201.41015625 C-84.3333522 201.41531754 -85.19404816 201.42047882 -86.08082581 201.42579651 C-87.31130898 201.42590981 -87.31130898 201.42590981 -88.56665039 201.42602539 C-89.63587486 201.42935631 -89.63587486 201.42935631 -90.72669983 201.43275452 C-93.89391059 201.27394562 -96.98911102 200.77349297 -100.125 200.3125 C-100.27874076 175.03534542 -100.42677825 149.75816307 -100.5679636 124.4809351 C-100.63364748 112.7451662 -100.7012213 101.00941379 -100.77319336 89.27368164 C-100.83589504 79.04880097 -100.89510267 68.82390716 -100.95005554 58.5989818 C-100.9792955 53.18138142 -101.01032506 47.76380424 -101.04553413 42.34623909 C-101.0785781 37.253339 -101.10697164 32.16043474 -101.13170624 27.06748772 C-101.14164905 25.19249342 -101.15333124 23.31750747 -101.16683006 21.4425354 C-101.18492324 18.89427077 -101.19691468 16.34605071 -101.20729065 13.79774475 C-101.21409444 13.04581362 -101.22089823 12.2938825 -101.22790819 11.51916558 C-101.23173036 9.78327563 -101.18411529 8.04738728 -101.125 6.3125 C-100.125 5.3125 -100.125 5.3125 -98.33433533 5.19224548 C-97.55490067 5.19446609 -96.775466 5.19668671 -95.97241211 5.19897461 C-94.65115578 5.19908791 -94.65115578 5.19908791 -93.3032074 5.19920349 C-92.34592239 5.20436478 -91.38863739 5.20952606 -90.40234375 5.21484375 C-88.93952721 5.21696617 -88.93952721 5.21696617 -87.44715881 5.21913147 C-84.31890857 5.22474867 -81.19072877 5.23730407 -78.0625 5.25 C-75.94726666 5.25501278 -73.83203219 5.25957607 -71.71679688 5.26367188 C-66.51950704 5.27472369 -61.32225855 5.29147854 -56.125 5.3125 C-54.66260276 10.21537917 -53.7922945 14.63484618 -53.5 19.75 C-53.42523437 20.98621094 -53.35046875 22.22242188 -53.2734375 23.49609375 C-53.22445313 24.42550781 -53.17546875 25.35492187 -53.125 26.3125 C-52.135 25.9825 -51.145 25.6525 -50.125 25.3125 C-50.125 25.9725 -50.125 26.6325 -50.125 27.3125 C-47.44733879 24.66923077 -44.82507254 22.00256907 -42.28515625 19.2265625 C-30.46406864 6.53832773 -17.63235516 -0.06608829 0 0 Z " fill="#620714" transform="translate(1275.125,1111.6875)"/>
<path d="M0 0 C6.35557558 4.64039252 11.2429567 9.70960946 13.11328125 17.54296875 C14.29347809 28.32061535 13.37440572 36.79358574 6.5390625 45.5625 C0.82649984 51.88759852 -5.20699039 54.61900147 -13.72119141 55.06445312 C-23.51920653 55.25554513 -30.46684617 52.88139052 -37.76171875 46.29296875 C-44.44393037 38.88408637 -45.78315958 31.19639223 -45.33203125 21.42578125 C-44.41764858 13.45300603 -40.72930378 7.35914885 -34.8046875 2.015625 C-25.06818925 -5.46026062 -10.60929306 -6.36557584 0 0 Z " fill="#600310" transform="translate(1563.88671875,1259.45703125)"/>
<path d="M0 0 C1.26650391 0.00966797 1.26650391 0.00966797 2.55859375 0.01953125 C3.43128906 0.03628906 4.30398438 0.05304688 5.203125 0.0703125 C6.53537109 0.08384766 6.53537109 0.08384766 7.89453125 0.09765625 C10.08100558 0.12116673 12.26692594 0.15402751 14.453125 0.1953125 C14.123125 1.1853125 13.793125 2.1753125 13.453125 3.1953125 C5.703125 3.3203125 5.703125 3.3203125 3.453125 2.1953125 C1.41257495 2.12465633 -0.63021757 2.11109274 -2.671875 2.1328125 C-3.76757812 2.14183594 -4.86328125 2.15085937 -5.9921875 2.16015625 C-7.25675781 2.17755859 -7.25675781 2.17755859 -8.546875 2.1953125 C-5.55561181 0.47325062 -3.44001787 -0.04648673 0 0 Z " fill="#E2BEB8" transform="translate(1265.546875,1155.8046875)"/>
<path d="M0 0 C4.95 0.33 9.9 0.66 15 1 C15 1.33 15 1.66 15 2 C12.87562788 2.19448477 10.75046809 2.38038289 8.625 2.5625 C7.44164062 2.66691406 6.25828125 2.77132813 5.0390625 2.87890625 C2 3 2 3 0 2 C0 1.34 0 0.68 0 0 Z " fill="#EAD0C9" transform="translate(1009,1316)"/>
<path d="M0 0 C0.33 0 0.66 0 1 0 C1 2.31 1 4.62 1 7 C0.67 7 0.34 7 0 7 C0 4.69 0 2.38 0 0 Z " fill="#D5D3D7" transform="translate(503,1193)"/>
<path d="M0 0 C0.66 0 1.32 0 2 0 C1.67 1.32 1.34 2.64 1 4 C0.67 2.68 0.34 1.36 0 0 Z " fill="#D8D4D2" transform="translate(1302,1184)"/>
<path d="M0 0 C0.66 0.33 1.32 0.66 2 1 C1.01 1.66 0.02 2.32 -1 3 C-0.67 2.01 -0.34 1.02 0 0 Z " fill="#F5E7D9" transform="translate(434,1158)"/>
<path d="M0 0 C1.65 0 3.3 0 5 0 C5 0.33 5 0.66 5 1 C3.35 1 1.7 1 0 1 C0 0.67 0 0.34 0 0 Z " fill="#E8D9D9" transform="translate(1441,1116)"/>
<path d="M0 0 C4 1 4 1 4 1 Z " fill="#E5DAD7" transform="translate(413,1271)"/>
<path d="M0 0 C1 4 1 4 1 4 Z " fill="#EBDFDB" transform="translate(1305,1234)"/>
<path d="M0 0 C0.66 0.66 1.32 1.32 2 2 C1.34 2 0.68 2 0 2 C0 1.34 0 0.68 0 0 Z " fill="#EEE3DA" transform="translate(865,1176)"/>
<path d="M0 0 C2 1 2 1 2 1 Z " fill="#F1DEDB" transform="translate(771,1558)"/>
<path d="M0 0 C2 1 2 1 2 1 Z " fill="#F7EDDB" transform="translate(858,1306)"/>
<path d="M0 0 C2 1 2 1 2 1 Z " fill="#FBEBDC" transform="translate(1378,1158)"/>
<path d="" fill="#EEE3DD" transform="translate(0,0)"/>
<path d="M0 0 C2 1 2 1 2 1 Z " fill="#E3DBDD" transform="translate(577,1113)"/>
<path d="M0 0 C2 1 2 1 2 1 Z " fill="#DDDADC" transform="translate(1369,1109)"/>
<path d="" fill="#ECDFDD" transform="translate(0,0)"/>
<path d="" fill="#EAE1DB" transform="translate(0,0)"/>
<path d="" fill="#E8E1DB" transform="translate(0,0)"/>
<path d="" fill="#ECE3DD" transform="translate(0,0)"/>
<path d="" fill="#ECDFD6" transform="translate(0,0)"/>
<path d="" fill="#EFE3DC" transform="translate(0,0)"/>
<path d="" fill="#FFE6DF" transform="translate(0,0)"/>
<path d="" fill="#E7E3DC" transform="translate(0,0)"/>
<path d="" fill="#F0E7DF" transform="translate(0,0)"/>
<path d="" fill="#F4E8DF" transform="translate(0,0)"/>
<path d="" fill="#F1E2DE" transform="translate(0,0)"/>
<path d="" fill="#E6E1DE" transform="translate(0,0)"/>
<path d="" fill="#EEE5DD" transform="translate(0,0)"/>
<path d="" fill="#E4E0DB" transform="translate(0,0)"/>
<path d="" fill="#E9DDD6" transform="translate(0,0)"/>
<path d="" fill="#E5DEDB" transform="translate(0,0)"/>
<path d="" fill="#FAEADB" transform="translate(0,0)"/>
<path d="" fill="#F4E3DA" transform="translate(0,0)"/>
<path d="" fill="#F5E9D7" transform="translate(0,0)"/>
<path d="" fill="#D9CCD1" transform="translate(0,0)"/>
<path d="" fill="#E4DDE3" transform="translate(0,0)"/>
<path d="" fill="#DAD7DC" transform="translate(0,0)"/>
<path d="" fill="#F2E3DD" transform="translate(0,0)"/>
<path d="" fill="#EADEE1" transform="translate(0,0)"/>
<path d="" fill="#E4D9D6" transform="translate(0,0)"/>
<path d="" fill="#EEDFDD" transform="translate(0,0)"/>
<path d="" fill="#E8E1DE" transform="translate(0,0)"/>
<path d="" fill="#F4E3DD" transform="translate(0,0)"/>
<path d="" fill="#DDD6D3" transform="translate(0,0)"/>
<path d="" fill="#DCD5D9" transform="translate(0,0)"/>
<path d="" fill="#D4CDD1" transform="translate(0,0)"/>
<path d="" fill="#E8E1DE" transform="translate(0,0)"/>
<path d="" fill="#DBD4DA" transform="translate(0,0)"/>
<path d="" fill="#E0D9DF" transform="translate(0,0)"/>
<path d="" fill="#E1DAE0" transform="translate(0,0)"/>
<path d="" fill="#E1DEDF" transform="translate(0,0)"/>
</svg>
